<svg xmlns="http://www.w3.org/2000/svg" width="128" height="64" viewBox="0 0 128 64" shape-rendering="crispEdges">
  <rect width="128" height="64" fill="#050711"/>

  <g id="wall-dark">
    <rect x="0" y="0" width="16" height="16" fill="#141129"/>
    <rect x="0" y="0" width="16" height="2" fill="#271d48"/>
    <rect x="0" y="14" width="16" height="2" fill="#050711"/>
    <rect x="2" y="4" width="11" height="1" fill="#3d2f67"/>
    <rect x="3" y="9" width="9" height="1" fill="#0a0715"/>
  </g>

  <g id="wall-pipe">
    <rect x="16" y="0" width="16" height="16" fill="#111326"/>
    <rect x="18" y="0" width="3" height="16" fill="#2e3553"/>
    <rect x="21" y="0" width="1" height="16" fill="#68708f"/>
    <rect x="26" y="2" width="2" height="12" fill="#352048"/>
    <rect x="28" y="2" width="1" height="12" fill="#bd4bff"/>
  </g>

  <g id="pink-sign">
    <rect x="32" y="0" width="16" height="16" fill="#201021"/>
    <rect x="34" y="2" width="12" height="12" fill="#420f35"/>
    <rect x="35" y="3" width="10" height="10" fill="#ff3f9a"/>
    <rect x="37" y="5" width="6" height="6" fill="#ff91cf"/>
    <rect x="36" y="12" width="8" height="1" fill="#6e0c4c"/>
  </g>

  <g id="cyan-sign">
    <rect x="48" y="0" width="16" height="16" fill="#071827"/>
    <rect x="50" y="3" width="12" height="9" fill="#00c7ff"/>
    <rect x="51" y="4" width="10" height="7" fill="#1ef0ff"/>
    <rect x="53" y="6" width="2" height="2" fill="#004b6f"/>
    <rect x="58" y="6" width="2" height="2" fill="#004b6f"/>
    <rect x="55" y="10" width="4" height="1" fill="#004b6f"/>
  </g>

  <g id="poster">
    <rect x="64" y="0" width="16" height="16" fill="#191223"/>
    <rect x="67" y="2" width="10" height="12" fill="#262f62"/>
    <rect x="68" y="3" width="8" height="2" fill="#ffe066"/>
    <rect x="69" y="6" width="6" height="5" fill="#ff4d95"/>
    <rect x="68" y="12" width="8" height="1" fill="#38e8ff"/>
  </g>

  <g id="shutter">
    <rect x="80" y="0" width="16" height="16" fill="#111523"/>
    <rect x="82" y="2" width="12" height="12" fill="#253049"/>
    <rect x="82" y="4" width="12" height="1" fill="#66718d"/>
    <rect x="82" y="7" width="12" height="1" fill="#66718d"/>
    <rect x="82" y="10" width="12" height="1" fill="#66718d"/>
    <rect x="82" y="13" width="12" height="1" fill="#0a0d18"/>
  </g>

  <g id="railing">
    <rect x="96" y="0" width="16" height="16" fill="#060810"/>
    <rect x="0" y="7" width="16" height="2" transform="translate(96 0)" fill="#222b3e"/>
    <rect x="2" y="4" width="2" height="11" transform="translate(96 0)" fill="#384257"/>
    <rect x="8" y="4" width="2" height="11" transform="translate(96 0)" fill="#384257"/>
    <rect x="14" y="4" width="2" height="11" transform="translate(96 0)" fill="#384257"/>
  </g>

  <g id="lamp">
    <rect x="112" y="0" width="16" height="16" fill="#120f1d"/>
    <rect x="119" y="0" width="2" height="8" fill="#3c4560"/>
    <rect x="115" y="7" width="10" height="2" fill="#ffe39d"/>
    <rect x="114" y="9" width="12" height="4" fill="#a35d1f"/>
    <rect x="116" y="10" width="8" height="2" fill="#ffd166"/>
  </g>

  <g id="floor-a">
    <rect x="0" y="16" width="16" height="16" fill="#17182b"/>
    <rect x="0" y="16" width="16" height="2" fill="#3d405f"/>
    <rect x="0" y="30" width="16" height="2" fill="#080913"/>
    <rect x="1" y="20" width="14" height="1" fill="#5e607f"/>
    <rect x="4" y="24" width="10" height="1" fill="#111222"/>
    <rect x="1" y="28" width="6" height="1" fill="#4b4d6f"/>
  </g>

  <g id="floor-b">
    <rect x="16" y="16" width="16" height="16" fill="#101124"/>
    <rect x="16" y="16" width="16" height="2" fill="#565b83"/>
    <rect x="16" y="30" width="16" height="2" fill="#050711"/>
    <rect x="18" y="21" width="12" height="1" fill="#292c4a"/>
    <rect x="18" y="27" width="12" height="1" fill="#686b92"/>
  </g>

  <g id="floor-glow-pink">
    <rect x="32" y="16" width="16" height="16" fill="#191226"/>
    <rect x="32" y="16" width="16" height="2" fill="#ff3f9a"/>
    <rect x="34" y="20" width="12" height="1" fill="#f979c1"/>
    <rect x="35" y="25" width="9" height="1" fill="#71214c"/>
    <rect x="32" y="30" width="16" height="2" fill="#050711"/>
  </g>

  <g id="floor-glow-cyan">
    <rect x="48" y="16" width="16" height="16" fill="#0e1625"/>
    <rect x="48" y="16" width="16" height="2" fill="#19e6ff"/>
    <rect x="50" y="21" width="12" height="1" fill="#83f7ff"/>
    <rect x="52" y="26" width="8" height="1" fill="#17677d"/>
    <rect x="48" y="30" width="16" height="2" fill="#050711"/>
  </g>

  <g id="curb">
    <rect x="64" y="16" width="16" height="16" fill="#25273a"/>
    <rect x="64" y="16" width="16" height="4" fill="#585d79"/>
    <rect x="64" y="20" width="16" height="3" fill="#121425"/>
    <rect x="64" y="29" width="16" height="3" fill="#070911"/>
    <rect x="66" y="25" width="4" height="1" fill="#b2b6cc"/>
    <rect x="73" y="25" width="4" height="1" fill="#b2b6cc"/>
  </g>

  <g id="wet-highlight">
    <rect x="80" y="16" width="16" height="16" fill="#111427"/>
    <rect x="80" y="16" width="16" height="2" fill="#6d7191"/>
    <rect x="82" y="21" width="11" height="1" fill="#d7dbff"/>
    <rect x="85" y="25" width="8" height="1" fill="#ff5eb0"/>
    <rect x="80" y="30" width="16" height="2" fill="#050711"/>
  </g>

  <g id="paper">
    <rect x="96" y="16" width="16" height="16" fill="#101326"/>
    <rect x="101" y="23" width="8" height="5" fill="#d9e2ef"/>
    <rect x="102" y="24" width="6" height="1" fill="#8794aa"/>
    <rect x="103" y="26" width="4" height="1" fill="#8794aa"/>
  </g>

  <g id="puddle">
    <rect x="112" y="16" width="16" height="16" fill="#101326"/>
    <rect x="115" y="24" width="9" height="2" fill="#0aa2d8"/>
    <rect x="117" y="23" width="5" height="1" fill="#8df8ff"/>
  </g>

  <g id="crate">
    <rect x="0" y="32" width="16" height="16" fill="#0c0d17"/>
    <rect x="2" y="4" width="12" height="10" transform="translate(0 32)" fill="#3d2a20"/>
    <rect x="3" y="5" width="10" height="1" transform="translate(0 32)" fill="#8c5635"/>
    <rect x="3" y="11" width="10" height="1" transform="translate(0 32)" fill="#120b08"/>
    <rect x="8" y="4" width="1" height="10" transform="translate(0 32)" fill="#17100c"/>
  </g>

  <g id="barrel">
    <rect x="16" y="32" width="16" height="16" fill="#0c0d17"/>
    <rect x="20" y="3" width="8" height="11" transform="translate(16 32)" fill="#334039"/>
    <rect x="19" y="5" width="10" height="2" transform="translate(16 32)" fill="#6d8a75"/>
    <rect x="19" y="10" width="10" height="2" transform="translate(16 32)" fill="#16211c"/>
  </g>

  <g id="trash">
    <rect x="32" y="32" width="16" height="16" fill="#0c0d17"/>
    <rect x="36" y="3" width="8" height="11" transform="translate(0 32)" fill="#293144"/>
    <rect x="35" y="3" width="10" height="2" transform="translate(0 32)" fill="#65708a"/>
    <rect x="38" y="6" width="1" height="7" transform="translate(0 32)" fill="#0b0f19"/>
    <rect x="42" y="6" width="1" height="7" transform="translate(0 32)" fill="#0b0f19"/>
  </g>

  <g id="cone">
    <rect x="48" y="32" width="16" height="16" fill="#0c0d17"/>
    <rect x="55" y="4" width="2" height="2" transform="translate(0 32)" fill="#ffd166"/>
    <rect x="53" y="6" width="6" height="6" transform="translate(0 32)" fill="#ff8c2e"/>
    <rect x="51" y="12" width="10" height="2" transform="translate(0 32)" fill="#ffe0a3"/>
  </g>

  <g id="neon-rail">
    <rect x="64" y="32" width="16" height="16" fill="#050711"/>
    <rect x="64" y="5" width="16" height="2" transform="translate(0 32)" fill="#334052"/>
    <rect x="64" y="7" width="16" height="1" transform="translate(0 32)" fill="#16f3ff"/>
    <rect x="66" y="3" width="2" height="12" transform="translate(0 32)" fill="#242d3f"/>
    <rect x="76" y="3" width="2" height="12" transform="translate(0 32)" fill="#242d3f"/>
  </g>

  <g id="foreground-shadow">
    <rect x="80" y="32" width="16" height="16" fill="#050711"/>
    <rect x="80" y="0" width="16" height="16" transform="translate(0 32)" fill="#000000" opacity="0.68"/>
    <rect x="80" y="2" width="16" height="2" transform="translate(0 32)" fill="#10172d"/>
  </g>

  <g id="black">
    <rect x="96" y="32" width="16" height="16" fill="#000000"/>
  </g>

  <g id="edge">
    <rect x="112" y="32" width="16" height="16" fill="#070911"/>
    <rect x="112" y="0" width="16" height="4" transform="translate(0 32)" fill="#2f3548"/>
    <rect x="112" y="4" width="16" height="1" transform="translate(0 32)" fill="#ff3f9a"/>
  </g>
</svg>
